<?xml version="1.0" encoding="utf-8"?>
<!-- Generator: Adobe Illustrator 19.0.0, SVG Export Plug-In . SVG Version: 6.00 Build 0)  -->
<svg version="1.1" id="Layer_1" xmlns="http://www.w3.org/2000/svg" xmlns:xlink="http://www.w3.org/1999/xlink" x="0px" y="0px"
	 viewBox="0 0 100 100" style="enable-background:new 0 0 100 100;" xml:space="preserve">
<style type="text/css">
	.st0{fill:#FC06E5;}
</style>
<g id="XMLID_8_">
	<rect id="XMLID_6_" x="29.7" y="20" class="st0" width="42.4" height="3.6"/>
	<path id="XMLID_13_" class="st0" d="M60.8,24.8H41c-3,0-5.4,2.4-5.4,5.4v8.4c8.6-3.7,15.3-4.9,15.3-4.9s6.7,1.1,15.3,4.9v-8.4
		C66.2,27.2,63.8,24.8,60.8,24.8z M61.5,30.8H40.4v-2.5h21.1V30.8z"/>
	<path id="XMLID_3_" class="st0" d="M79.5,48.2c-4.5-3.2-9.1-5.6-13.3-7.4c-6.8-3-12.5-4.3-14.5-4.7V82c8.7-1.3,13.5-4.2,13.5-4.2
		C68.5,66.2,79.5,48.2,79.5,48.2z"/>
	<path id="XMLID_9_" class="st0" d="M35.6,40.8c-4.2,1.8-8.8,4.2-13.3,7.4c0,0,11,18,14.3,29.7c0,0,4.8,2.9,13.5,4.2V36.1
		C48.1,36.5,42.5,37.9,35.6,40.8z M42.6,51.4c-1.4,0-2.5-1.1-2.5-2.5c0-1.4,1.1-2.5,2.5-2.5c1.4,0,2.5,1.1,2.5,2.5
		C45.1,50.3,44,51.4,42.6,51.4z"/>
</g>
</svg>
