<?xml version="1.0" encoding="utf-8"?>
<!-- Generator: Adobe Illustrator 19.0.0, SVG Export Plug-In . SVG Version: 6.00 Build 0)  -->
<svg version="1.1" id="Layer_1" xmlns="http://www.w3.org/2000/svg" xmlns:xlink="http://www.w3.org/1999/xlink" x="0px" y="0px"
	 viewBox="37 -38 100 100" style="enable-background:new 37 -38 100 100;" xml:space="preserve">
<style type="text/css">
	.st0{fill:#FF5555;}
</style>
<g id="XMLID_8_">
	<rect id="XMLID_6_" x="66.7" y="-18" class="st0" width="42.4" height="3.6"/>
	<path id="XMLID_13_" class="st0" d="M97.8-13.2H78c-3,0-5.4,2.4-5.4,5.4v8.4c8.6-3.7,15.3-4.9,15.3-4.9s6.7,1.1,15.3,4.9v-8.4
		C103.2-10.8,100.8-13.2,97.8-13.2z M98.5-7.2H77.4v-2.5h21.1V-7.2z"/>
	<path id="XMLID_3_" class="st0" d="M116.5,10.2c-4.5-3.2-9.1-5.6-13.3-7.4c-6.8-3-12.5-4.3-14.5-4.7V44c8.7-1.3,13.5-4.2,13.5-4.2
		C105.5,28.2,116.5,10.2,116.5,10.2z"/>
	<path id="XMLID_9_" class="st0" d="M72.6,2.8c-4.2,1.8-8.8,4.2-13.3,7.4c0,0,11,18,14.3,29.7c0,0,4.8,2.9,13.5,4.2v-46
		C85.1-1.5,79.5-0.1,72.6,2.8z M79.6,13.4c-1.4,0-2.5-1.1-2.5-2.5s1.1-2.5,2.5-2.5s2.5,1.1,2.5,2.5C82.1,12.3,81,13.4,79.6,13.4z"/>
</g>
</svg>
