<?xml version="1.0" encoding="utf-8"?>
<!-- Generator: Adobe Illustrator 19.0.0, SVG Export Plug-In . SVG Version: 6.00 Build 0)  -->
<svg version="1.1" id="Layer_1" xmlns="http://www.w3.org/2000/svg" xmlns:xlink="http://www.w3.org/1999/xlink" x="0px" y="0px"
	 viewBox="0 0 100 100" style="enable-background:new 0 0 100 100;" xml:space="preserve">
<style type="text/css">
	.st0{fill:#DB1F26;}
	.st1{fill:#FFFFFF;}
	.st2{fill:#231F20;}
</style>
<path id="XMLID_15_" class="st0" d="M78.7,40.7c0,0.7-0.6,1.3-1.4,1.3c-0.8,0-1.4-0.6-1.4-1.3c0-0.7,0.6-1.3,1.4-1.3
	C78,39.4,78.7,40,78.7,40.7z"/>
<path id="XMLID_31_" class="st1" d="M77.2,38.6c-1.5,0-2.8,1.1-2.8,2.4c0,1.3,1.2,2.4,2.8,2.4c1.5,0,2.8-1.1,2.8-2.4
	C80,39.7,78.8,38.6,77.2,38.6z M77.2,42c-0.8,0-1.4-0.6-1.4-1.3c0-0.7,0.6-1.3,1.4-1.3c0.8,0,1.4,0.6,1.4,1.3
	C78.7,41.4,78,42,77.2,42z"/>
<path id="XMLID_12_" class="st1" d="M83.7,39.4c-3.6-2-9-4.4-16.1-5.8c-11.4-2.3-34.8,5.8-42.6,8.8c7.3-3.6,25.9-10.4,38.1-10.4
	c1.9,0,3.6,0.2,5,0.5C74,33.7,79.4,36.6,83.7,39.4z"/>
<path id="XMLID_11_" class="st2" d="M23.4,41.4c-0.6,0.3-1.2,0.6-1.6,0.9L15,38.4C19.2,39.3,22,40.6,23.4,41.4z"/>
<path id="XMLID_5_" class="st1" d="M92.3,45.9c-3,3.7-8.9,6.9-15.8,9c0,0,0,0-0.1,0c-0.3-0.1-0.6-0.4-0.9-0.6
	c-0.3-0.3-0.7-0.5-1-0.8c-0.7-0.6-1.4-1.5-2-2.5c-0.3-0.5-0.5-1-0.6-1.6c-0.2-0.6-0.3-1.1-0.3-1.7c-0.1-0.6-0.1-1.2,0-1.8
	c0-0.6,0.1-1.2,0.2-1.7c0.2-1.1,0.4-2.2,0.7-3.1c0-0.1,0.1-0.3,0.1-0.4c0,0,0,0,1.1,0.1c0,0.1,0,0.2,0,0.3c0,1.8,1.6,3.2,3.6,3.2
	c1.7,0,3.2-1.1,3.5-2.5c3.2,0.5,6.6,1,7.8,1.1c0.6,0.4,1.1,0.8,1.5,1.2l-6.7,4.5l-0.5-0.1l2.9-2.6l-1.2-1l-4.9,4.5l4.1,1l7.6-5.1
	C91.7,45.4,92.1,45.7,92.3,45.9z"/>
<path id="XMLID_19_" class="st1" d="M75.3,54.6c-0.4-0.2-0.8-0.4-1.2-0.7c-0.9-0.6-1.8-1.4-2.4-2.5c-0.3-0.5-0.6-1.1-0.8-1.8
	c-0.2-0.6-0.3-1.3-0.4-1.9c-0.2-2.6,0.6-5.1,1.4-6.8c0.1-0.2,0.2-0.4,0.3-0.6l-1-0.9v-1.2l-0.5,0.4c0,0.1-0.1,0.2-0.1,0.4
	c-0.2,0.5-0.4,1.3-0.7,2.2C69.5,42,69.2,43,69,44.1c-0.1,0.6-0.1,1.1-0.2,1.7c0,0.6,0,1.2,0,1.8c0,0.6,0.1,1.2,0.3,1.7
	c0.2,0.6,0.3,1.1,0.6,1.6c0.5,1,1.2,1.8,1.9,2.5c0.4,0.3,0.7,0.6,1,0.8c0.3,0.2,0.6,0.4,0.9,0.6c0.5,0.2,0.7,0.4,0.8,0.5
	c-0.1,0-0.4-0.1-0.9-0.3c-0.3-0.1-0.6-0.2-1-0.4c-0.4-0.2-0.8-0.4-1.2-0.7c-0.9-0.6-1.8-1.4-2.4-2.5c-0.3-0.5-0.6-1.1-0.8-1.8
	c-0.2-0.6-0.3-1.3-0.4-1.9c-0.2-2.6,0.6-5.1,1.4-6.8c0.4-0.9,0.9-1.7,1.2-2.1l-2.4,1.7l-44.6,2.8c0,0,0,0,0,0
	C27,45.6,40.7,53.9,52,56.6c2.4,0.6,5.1,0.9,8.1,0.9c5.3,0,10.9-0.9,16-2.5C75.9,54.9,75.6,54.8,75.3,54.6z M55.4,43.3h10.7
	c-1.3,2.7,1.7,6,1.7,6C54.3,47.6,55.4,43.3,55.4,43.3z"/>
<path id="XMLID_2_" class="st2" d="M34.6,54.4L34.6,54.4C34.6,54.4,34.5,55.4,34.6,54.4z"/>
<g id="XMLID_17_">
	<path id="XMLID_23_" class="st0" d="M94,45.3C93.5,44.8,82.2,34,68.6,30.9c-1.6-0.4-3.4-0.5-5.4-0.5c-0.6,0-1.3,0-1.9,0.1
		l-4.7-10.4l-6.7,8.3l-2.3-1.7c0,0-6.4,6.1-8.1,7.5c-0.3,0.3-1,0.7-1.8,1.1l-2-0.5l-0.4,1.6c-0.3,0.1-0.5,0.2-0.8,0.3l-1.6-0.4
		l-0.6,1.2c-0.4,0.2-0.9,0.3-1.3,0.5l-1.3-0.4l-0.5,1.1c-0.6,0.2-1.1,0.5-1.6,0.7l-0.9-0.2l-0.8,1c-0.3,0.1-0.5,0.2-0.8,0.4
		c-1.4-0.9-5.9-3.4-13.9-4.5l-3.7-0.5l13.2,7.7c-1.7,1.8-6.5,7.1-9.3,10.3L9,56.1l3.2-1.3c1.2-0.5,11.4-4.6,14.1-7.9
		c1.7,1,3.9,2.2,6.2,3.4c1,1.3,2.2,2.9,2.1,3.8c0,0.1,0,0.1,0,0.2l2.3-1.8c4.7,2.2,9.8,4.3,14.7,5.5c2.6,0.6,5.4,0.9,8.6,0.9
		c0.5,0,1,0,1.5,0l2,1.2l1.4-1.4c12.2-1.1,24.4-6.2,29.1-12.5l0.4-0.5L94,45.3z M63.2,31.9c1.9,0,3.6,0.2,5,0.5
		c5.8,1.3,11.3,4.2,15.6,7c-3.6-2-9-4.4-16.1-5.8c-11.4-2.3-34.8,5.8-42.6,8.8C32.4,38.7,51,31.9,63.2,31.9z M80,41
		c0,1.3-1.2,2.4-2.8,2.4c-1.5,0-2.8-1.1-2.8-2.4c0-1.3,1.2-2.4,2.8-2.4C78.8,38.6,80,39.7,80,41z M60.1,57.4c-3,0-5.7-0.3-8.1-0.9
		c-11.3-2.7-25.1-11-28.7-13.3c0,0,0,0,0,0l44.6-2.8l2.4-1.7c-0.3,0.5-0.8,1.2-1.2,2.1c-0.8,1.7-1.6,4.2-1.4,6.8
		c0.1,0.6,0.2,1.3,0.4,1.9c0.2,0.6,0.5,1.2,0.8,1.8c0.7,1.1,1.6,1.9,2.4,2.5c0.4,0.3,0.9,0.5,1.2,0.7c0.4,0.2,0.7,0.3,1,0.4
		c0.5,0.2,0.8,0.3,0.9,0.3c-0.1,0-0.3-0.2-0.8-0.5c-0.3-0.1-0.6-0.4-0.9-0.6c-0.3-0.3-0.7-0.5-1-0.8C71,52.8,70.3,52,69.8,51
		c-0.3-0.5-0.5-1-0.6-1.6c-0.2-0.6-0.3-1.1-0.3-1.7c-0.1-0.6-0.1-1.2,0-1.8c0.1-0.6,0.1-1.2,0.2-1.7c0.2-1.1,0.4-2.2,0.7-3.1
		c0.3-0.9,0.5-1.6,0.7-2.2c0.1-0.1,0.1-0.3,0.1-0.4l0.5-0.4v1.2l1,0.9c-0.1,0.2-0.2,0.4-0.3,0.6c-0.8,1.7-1.6,4.2-1.4,6.8
		c0.1,0.6,0.2,1.3,0.4,1.9c0.2,0.6,0.5,1.2,0.8,1.8c0.7,1.1,1.6,1.9,2.4,2.5c0.4,0.3,0.9,0.5,1.2,0.7c0.3,0.1,0.6,0.3,0.9,0.4
		C71.1,56.5,65.5,57.4,60.1,57.4z M76.5,54.9C76.5,54.9,76.4,54.9,76.5,54.9c-0.3-0.2-0.6-0.4-1-0.6c-0.3-0.3-0.7-0.5-1-0.8
		c-0.7-0.6-1.4-1.5-2-2.5c-0.3-0.5-0.5-1-0.6-1.6c-0.2-0.6-0.3-1.1-0.3-1.7c-0.1-0.6-0.1-1.2,0-1.8c0-0.6,0.1-1.2,0.2-1.7
		c0.2-1.1,0.4-2.2,0.7-3.1c0-0.1,0.1-0.3,0.1-0.4c0,0,0,0,1.1,0.1c0,0.1,0,0.2,0,0.3c0,1.8,1.6,3.2,3.6,3.2c1.7,0,3.2-1.1,3.5-2.5
		c3.2,0.5,6.6,1,7.8,1.1c0.6,0.4,1.1,0.8,1.5,1.2l-6.7,4.5l-0.5-0.1l2.9-2.6l-1.2-1l-4.9,4.5l4.1,1l7.6-5.1c0.4,0.3,0.7,0.6,0.9,0.8
		C89.2,49.5,83.3,52.8,76.5,54.9z"/>
	<path id="XMLID_1_" class="st0" d="M67.9,49.3c-13.5-1.7-12.4-6-12.4-6h10.7C64.8,46,67.9,49.3,67.9,49.3z"/>
</g>
<polygon id="XMLID_16_" class="st0" points="52.1,89 42.6,71.7 62.3,72.1 "/>
</svg>
