<?xml version="1.0" encoding="utf-8"?>
<!-- Generator: Adobe Illustrator 19.0.0, SVG Export Plug-In . SVG Version: 6.00 Build 0)  -->
<svg version="1.1" id="Layer_1" xmlns="http://www.w3.org/2000/svg" xmlns:xlink="http://www.w3.org/1999/xlink" x="0px" y="0px"
	 viewBox="37 -38 100 100" style="enable-background:new 37 -38 100 100;" xml:space="preserve">
<style type="text/css">
	.st0{fill:#5E90A7;}
	.st1{fill:#CDEAE7;}
	.st2{fill:#80A9BC;}
	.st3{fill:#B0DEDB;}
	.st4{opacity:0.6;fill:#FFFFFF;}
	.st5{fill:#FFCA05;}
	.st6{fill:#00546D;}
	.st7{fill:#FFFFFF;}
</style>
<path class="st0" d="M111.8,5.8c0-3.9,0.4-8.2-3.9-10.1c-4.3-1.9-0.7,0.9-5.5,0c-4.8-0.9-3.9-1.3-7.5,0.1c-3.6,1.5-3.4,3.9-7.6,3.9
	s-4,3.6-7.4,3.6c-3.4,0-2.8,3.6-6,4.6c-3.2,0.9-1.6,4.2-4,5.5c-2.4,1.3,0,5.2,0,5.2L111.8,5.8z"/>
<path class="st0" d="M92.6,34.4c0,0-13.1,9.9-15.4,7.6c-2.3-2.3,0.4-5.6-2.1-5.6c-2.5,0-3.1-2-4.8-2c-1.7,0,0-4.8-1.7-4.8
	c-1.7,0-2.2-5.2,1.1-5.8c8.5-1.5,19.7,7.1,19.7,7.1L92.6,34.4z"/>
<path class="st0" d="M110.5,34.9c-3.4-2.1-16.8,6.6-13.3,10.1C100.7,48.4,113.8,37,110.5,34.9z"/>
<path class="st1" d="M133.7,23.4c0-5.8-19.7-21.9-35.1-21.9c-15.4,0-21.2,14.6-31,14.6c-9.8,0-18.4-8.7-24.9-8.7
	c0,0,6.4,11.5,11.5,13.3c-6.7,1.6-9.4,9.9-11.5,12.1c0,0,18.3-7.8,24.3-7.8c6,0,11.4,13,32.5,13C120.7,38,133.7,27.5,133.7,23.4z"/>
<path class="st2" d="M98.5,1.5c14.4,0,32.5,14,34.9,20.6c-17.6,1.7-55.2-0.1-79.9-1.2c0.2-0.1,0.4-0.2,0.7-0.2
	C49.1,18.9,42.6,7.4,42.6,7.4c6.6,0,15.1,8.7,24.9,8.7C77.4,16.1,83.1,1.5,98.5,1.5z"/>
<path class="st0" d="M42.8,7.7c0.1-0.1,0.2-0.1,0.2-0.2c5.5,0.3,12.4,6.3,20.2,8.1c-1,3.5-1.8,7.1-1.7,10.4
	c-7.7,2.1-18.9,6.8-18.9,6.8c2.1-2.1,4.8-10.5,11.5-12.1C49.5,19.1,43.7,9.3,42.8,7.7z"/>
<path class="st3" d="M133.7,23.4c0,2.4-4.5,7-12.5,10.4c-8.8-7.9-5.9-18.8-1.7-25.1C127.6,13.8,133.7,20.2,133.7,23.4z"/>
<path class="st0" d="M133.7,23.4C133.7,23.4,133.7,23.4,133.7,23.4c-3.9,0.6-5.3,5.7-11.4,3.8c-6-1.9-3.3-10.7,1.1-15.8
	C129.4,15.8,133.7,20.7,133.7,23.4z"/>
<path class="st4" d="M110.5,22.8c0-4-35.3-5.7-35.3-1C75.2,26.6,110.5,27.5,110.5,22.8z"/>
<g>
	<circle class="st5" cx="124.6" cy="21.3" r="2.3"/>
	<circle class="st6" cx="124.6" cy="21.3" r="1.3"/>
	<circle class="st7" cx="125.2" cy="20.6" r="0.6"/>
</g>
</svg>
